
<svg version="1.1" width="17pt" viewBox="150 0 450 600" >
 <g>
  <path fill="#faebd7" d="m439.49 324.46c7.0664-11.574 11.555-24.543 13.152-38.012 3.207-27.766-6.4414-55.48-26.203-75.25-9.6211-9.5625-21.191-16.938-33.918-21.621-2.6367-0.96094-5.2969-1.7578-7.957-2.5078 22.832-8.6602 42.145-24.645 54.926-45.453 7.0664-11.574 11.555-24.543 13.152-38.012 3.207-27.77-6.4414-55.48-26.203-75.25-9.6211-9.5625-21.191-16.938-33.918-21.621-23.926-8.7773-50.156-8.9961-74.223-0.61328-24.066 8.3789-44.488 24.84-57.785 46.582-7.0664 11.574-11.555 24.539-13.152 38.012-3.207 27.766 6.4414 55.48 26.203 75.25 9.6211 9.5625 21.191 16.938 33.918 21.621 2.6406 0.96094 5.2969 1.7578 7.957 2.5078-22.828 8.6602-42.145 24.645-54.926 45.453-7.0664 11.574-11.555 24.543-13.152 38.012-3.207 27.766 6.4414 55.48 26.203 75.25 9.6211 9.5625 21.191 16.938 33.918 21.621 2.6406 0.96094 5.2969 1.7578 7.957 2.5078-22.828 8.6602-42.145 24.645-54.926 45.453-7.0664 11.574-11.555 24.543-13.152 38.012-3.207 27.77 6.4414 55.48 26.203 75.25 9.6211 9.5625 21.191 16.938 33.918 21.621 23.926 8.7773 50.156 8.9961 74.223 0.61328 24.066-8.3789 44.488-24.84 57.785-46.582 7.0664-11.574 11.555-24.539 13.152-38.012 3.207-27.766-6.4414-55.48-26.203-75.25-9.6211-9.5625-21.191-16.938-33.918-21.621-2.6406-0.96094-5.2969-1.7578-7.957-2.5078 22.828-8.6602 42.145-24.645 54.926-45.453zm-134.18-184.07c-8.6133-15.301-14.43-32.016-17.188-49.355-1.5586-9.1484-1.7539-18.473-0.58984-27.676 1.2617-9.8359 4.9688-19.195 10.785-27.223 6.0977-8.2422 14.539-14.453 24.223-17.824 9.6836-3.3711 20.156-3.7461 30.059-1.0781 9.543 2.6797 18.262 7.7109 25.355 14.637 6.6328 6.4883 12.27 13.922 16.73 22.055 8.6133 15.305 14.43 32.016 17.188 49.359 1.5586 9.1445 1.7539 18.473 0.58984 27.676-1.2617 9.832-4.9688 19.191-10.785 27.223-6.0977 8.2383-14.539 14.453-24.223 17.824-9.6836 3.3711-20.156 3.7461-30.059 1.0742-9.543-2.6758-18.262-7.7109-25.355-14.633-6.6328-6.4883-12.27-13.922-16.73-22.059zm89.375 279.23c8.6094 15.301 14.43 32.012 17.188 49.355 1.5586 9.1445 1.7539 18.473 0.58984 27.676-1.2617 9.8359-4.9688 19.195-10.785 27.223-6.0977 8.2422-14.539 14.453-24.223 17.824-9.6836 3.3711-20.156 3.7461-30.059 1.0781-9.543-2.6797-18.262-7.7109-25.355-14.637-6.6328-6.4883-12.27-13.922-16.73-22.055-8.6094-15.305-14.43-32.016-17.188-49.359-1.5586-9.1445-1.7539-18.473-0.58984-27.676 1.2617-9.832 4.9688-19.191 10.785-27.223 6.0977-8.2383 14.539-14.453 24.223-17.824 9.6836-3.3711 20.156-3.7461 30.059-1.0742 9.543 2.6758 18.262 7.707 25.355 14.633 6.6328 6.4883 12.27 13.922 16.73 22.059zm17.773-105.81 0.003906-0.003907c-1.2617 9.8359-4.9688 19.195-10.785 27.223-6.0977 8.2422-14.539 14.453-24.223 17.824-9.6836 3.3711-20.156 3.7461-30.059 1.0781-9.543-2.6797-18.262-7.7109-25.355-14.637-6.6328-6.4883-12.27-13.922-16.73-22.059-8.6094-15.301-14.43-32.012-17.188-49.355-1.5586-9.1445-1.7539-18.473-0.58984-27.676 1.2617-9.8359 4.9688-19.195 10.785-27.223 6.0977-8.2422 14.539-14.453 24.223-17.824 9.6836-3.3711 20.156-3.7461 30.059-1.0781 9.543 2.6797 18.262 7.7109 25.355 14.637 6.6328 6.4883 12.27 13.922 16.73 22.059 8.6094 15.301 14.43 32.012 17.188 49.355 1.5586 9.1445 1.7539 18.473 0.58984 27.676z"/>
  <use x="246.765625" y="580.367188" xlink:href="#v"/>
  <use x="251.75" y="580.367188" xlink:href="#b"/>
  <use x="255.097656" y="580.367188" xlink:href="#a"/>
  <use x="259.699219" y="580.367188" xlink:href="#k"/>
  <use x="264.28125" y="580.367188" xlink:href="#d"/>
  <use x="267.527344" y="580.367188" xlink:href="#a"/>
  <use x="272.132812" y="580.367188" xlink:href="#j"/>
  <use x="279.355469" y="580.367188" xlink:href="#i"/>
  <use x="284.214844" y="580.367188" xlink:href="#h"/>
  <use x="291" y="580.367188" xlink:href="#g"/>
  <use x="295.632812" y="580.367188" xlink:href="#c"/>
  <use x="300.296875" y="580.367188" xlink:href="#f"/>
  <use x="309.734375" y="580.367188" xlink:href="#u"/>
  <use x="314.371094" y="580.367188" xlink:href="#b"/>
  <use x="317.71875" y="580.367188" xlink:href="#t"/>
  <use x="320.042969" y="580.367188" xlink:href="#e"/>
  <use x="324.070312" y="580.367188" xlink:href="#s"/>
  <use x="328.582031" y="580.367188" xlink:href="#a"/>
  <use x="333.1875" y="580.367188" xlink:href="#b"/>
  <use x="246.765625" y="587.152344" xlink:href="#r"/>
  <use x="249.71875" y="587.152344" xlink:href="#b"/>
  <use x="253.070312" y="587.152344" xlink:href="#c"/>
  <use x="257.730469" y="587.152344" xlink:href="#f"/>
  <use x="267.167969" y="587.152344" xlink:href="#d"/>
  <use x="270.414062" y="587.152344" xlink:href="#q"/>
  <use x="275.246094" y="587.152344" xlink:href="#a"/>
  <use x="282.214844" y="587.152344" xlink:href="#p"/>
  <use x="287.894531" y="587.152344" xlink:href="#c"/>
  <use x="292.558594" y="587.152344" xlink:href="#o"/>
  <use x="297.390625" y="587.152344" xlink:href="#n"/>
  <use x="304.589844" y="587.152344" xlink:href="#m"/>
  <use x="309.5625" y="587.152344" xlink:href="#b"/>
  <use x="312.910156" y="587.152344" xlink:href="#c"/>
  <use x="317.574219" y="587.152344" xlink:href="#l"/>
  <use x="319.902344" y="587.152344" xlink:href="#a"/>
  <use x="324.507812" y="587.152344" xlink:href="#e"/>
  <use x="328.53125" y="587.152344" xlink:href="#d"/>
 </g>
</svg>
